<svg width="810" height="132" viewBox="0 0 810 132" fill="none" xmlns="http://www.w3.org/2000/svg">
<path d="M38.2651 104.595C30.873 104.595 24.8941 101.551 21.4154 95.7895H21.198V102.855H4.2396V25.1295H21.959V53.5022H22.2851C25.7637 48.719 30.5469 45.5665 38.1564 45.5665C52.6145 45.5665 61.9634 58.2853 61.9634 75.0263C61.9634 93.5066 52.6145 104.595 38.2651 104.595ZM33.2646 90.5715C40.2218 90.5715 44.0266 84.5926 44.0266 74.9176C44.0266 65.3513 40.2218 59.0463 33.0471 59.0463C25.2202 59.0463 21.4154 65.8949 21.4154 75.0263C21.4154 84.2665 25.9811 90.5715 33.2646 90.5715ZM68.0442 102.855V25.1295H85.981V102.855H68.0442ZM121.759 91.9847C129.477 91.9847 133.608 85.2448 133.608 75.135C133.608 65.0252 129.477 58.1766 121.759 58.1766C114.04 58.1766 110.018 65.0252 110.018 75.135C110.018 85.2448 114.04 91.9847 121.759 91.9847ZM121.867 104.595C104.039 104.595 92.0814 91.876 92.0814 75.135C92.0814 58.394 104.039 45.6752 121.867 45.6752C139.804 45.6752 151.544 58.394 151.544 75.135C151.544 91.876 139.804 104.595 121.867 104.595ZM184.603 104.595C166.666 104.595 155.034 91.876 155.034 75.135C155.034 58.394 166.557 45.6752 184.168 45.6752C199.278 45.6752 208.953 54.4805 210.584 66.9819H193.517C192.43 61.9814 189.386 58.7201 184.385 58.7201C176.776 58.7201 172.971 65.0252 172.971 75.135C172.971 85.0274 176.776 91.3325 184.385 91.3325C189.929 91.3325 193.299 88.0712 194.06 81.7662H211.019C210.584 94.5937 200.365 104.595 184.603 104.595ZM216.665 102.855V25.1295H234.167V66.0036L250.691 47.1971H271.128L251.561 68.069L273.411 102.855H252.865L239.494 80.1356L234.167 85.7884V102.855H216.665ZM277.495 102.855V25.1295H295.214V54.0457H295.541C299.563 48.719 304.346 45.5665 312.064 45.5665C324.239 45.5665 331.414 54.2631 331.414 66.6558V102.855H313.695V70.2432C313.695 64.3729 310.76 60.3508 304.998 60.3508C299.128 60.3508 295.214 65.2426 295.214 72.0912V102.855H277.495ZM366.669 104.486C348.298 104.486 336.992 91.7673 336.992 74.9176C336.992 58.2853 348.624 45.5665 365.582 45.5665C373.518 45.5665 379.823 48.1755 384.606 52.5238C391.237 58.6114 394.499 68.2864 394.39 79.592H354.385C355.472 87.0929 359.603 91.7673 366.887 91.7673C371.561 91.7673 374.605 89.7018 376.127 86.2232H393.411C392.216 91.2237 388.954 96.0069 384.063 99.3768C379.388 102.638 373.735 104.486 366.669 104.486ZM354.494 69.0474H376.453C375.801 62.4162 371.67 58.1766 365.908 58.1766C359.169 58.1766 355.69 62.4162 354.494 69.0474ZM400.322 102.855V47.1971H418.041V102.855H400.322ZM400.322 39.4789V25.1295H418.041V39.4789H400.322ZM452.416 122.097C437.088 122.097 426.978 115.792 425.239 104.16H442.415C443.393 107.095 446.328 109.595 452.199 109.595C459.699 109.595 462.852 105.682 462.852 98.942V93.3979H462.417C459.156 97.094 454.916 99.8117 448.176 99.8117C435.675 99.8117 424.043 90.4628 424.043 73.3957C424.043 57.0895 433.61 45.5665 447.415 45.5665C454.808 45.5665 459.808 48.5016 463.069 53.1761H463.287V47.1971H480.245V97.4201C480.245 105.791 477.31 111.878 472.853 115.9C467.961 120.249 460.678 122.097 452.416 122.097ZM452.307 86.658C460.025 86.658 463.613 80.5704 463.613 72.7434C463.613 65.2426 459.699 58.9376 452.307 58.9376C445.676 58.9376 441.328 64.3729 441.328 72.8521C441.328 81.2226 445.676 86.658 452.307 86.658ZM488.753 102.855V25.1295H506.473V54.0457H506.799C510.821 48.719 515.604 45.5665 523.322 45.5665C535.497 45.5665 542.672 54.2631 542.672 66.6558V102.855H524.953V70.2432C524.953 64.3729 522.018 60.3508 516.256 60.3508C510.386 60.3508 506.473 65.2426 506.473 72.0912V102.855H488.753ZM571.757 103.508C561.429 103.508 554.037 100.138 554.037 88.1799V58.2853H546.645V47.1971H554.037V29.5865H571.322V47.1971H581.432V58.2853H571.322V84.3752C571.322 88.7235 573.713 89.8105 577.518 89.8105C579.04 89.8105 580.779 89.7018 581.432 89.7018V102.638C579.91 103.073 576.54 103.508 571.757 103.508ZM588.101 102.855V84.5926H606.69V102.855H588.101Z" fill="black"/>
<path d="M637.31 78.4765V74.8891L619.373 49.5602H629.374L641.006 66.0838C643.615 69.7798 644.376 71.8453 644.376 73.6933H647.855C647.855 71.8453 648.616 69.7798 651.225 66.0838L662.856 49.5602H672.857L654.921 75.1065V78.3678L672.857 103.914H662.856L651.225 87.3905C648.616 83.6944 647.855 81.5203 647.855 79.6722H644.376C644.376 81.5203 643.615 83.6944 641.006 87.3905L629.374 103.914H619.373L637.31 78.4765ZM694.556 49.5602L707.384 90.7604C709.232 97.0655 709.341 97.3916 709.341 100.653H713.254C713.254 97.3916 713.363 97.0655 715.211 90.7604L727.386 49.5602H737.17L712.058 131.091L702.275 131.2L711.406 103.914H702.275L684.773 49.5602H694.556ZM802.569 104.24H751.477V87.3905L789.524 63.04C790.829 62.1703 792.894 61.0832 797.025 61.0832V57.822H752.564V49.5602H800.287V65.8664L763.108 90.6517C761.26 91.8475 758.651 92.7172 754.738 92.7172V95.9784H802.569V104.24Z" fill="black"/>
</svg>
