<svg width="810" height="132" viewBox="0 0 810 132" fill="none" xmlns="http://www.w3.org/2000/svg">
<path d="M38.2651 105.595C30.873 105.595 24.8941 102.551 21.4154 96.7895H21.198V103.855H4.2396V26.1295H21.959V54.5022H22.2851C25.7637 49.719 30.5469 46.5665 38.1564 46.5665C52.6145 46.5665 61.9634 59.2853 61.9634 76.0263C61.9634 94.5066 52.6145 105.595 38.2651 105.595ZM33.2646 91.5715C40.2218 91.5715 44.0266 85.5926 44.0266 75.9176C44.0266 66.3513 40.2218 60.0463 33.0471 60.0463C25.2202 60.0463 21.4154 66.8949 21.4154 76.0263C21.4154 85.2665 25.9811 91.5715 33.2646 91.5715ZM68.0442 103.855V26.1295H85.981V103.855H68.0442ZM121.759 92.9847C129.477 92.9847 133.608 86.2448 133.608 76.135C133.608 66.0252 129.477 59.1766 121.759 59.1766C114.04 59.1766 110.018 66.0252 110.018 76.135C110.018 86.2448 114.04 92.9847 121.759 92.9847ZM121.867 105.595C104.039 105.595 92.0814 92.876 92.0814 76.135C92.0814 59.394 104.039 46.6752 121.867 46.6752C139.804 46.6752 151.544 59.394 151.544 76.135C151.544 92.876 139.804 105.595 121.867 105.595ZM184.603 105.595C166.666 105.595 155.034 92.876 155.034 76.135C155.034 59.394 166.557 46.6752 184.168 46.6752C199.278 46.6752 208.953 55.4805 210.584 67.9819H193.517C192.43 62.9814 189.386 59.7201 184.385 59.7201C176.776 59.7201 172.971 66.0252 172.971 76.135C172.971 86.0274 176.776 92.3325 184.385 92.3325C189.929 92.3325 193.299 89.0712 194.06 82.7662H211.019C210.584 95.5937 200.365 105.595 184.603 105.595ZM216.665 103.855V26.1295H234.167V67.0036L250.691 48.1971H271.128L251.561 69.069L273.411 103.855H252.865L239.494 81.1356L234.167 86.7884V103.855H216.665ZM277.495 103.855V26.1295H295.214V55.0457H295.541C299.563 49.719 304.346 46.5665 312.064 46.5665C324.239 46.5665 331.414 55.2631 331.414 67.6558V103.855H313.695V71.2432C313.695 65.3729 310.76 61.3508 304.998 61.3508C299.128 61.3508 295.214 66.2426 295.214 73.0912V103.855H277.495ZM366.669 105.486C348.298 105.486 336.992 92.7673 336.992 75.9176C336.992 59.2853 348.624 46.5665 365.582 46.5665C373.518 46.5665 379.823 49.1755 384.606 53.5238C391.237 59.6114 394.499 69.2864 394.39 80.592H354.385C355.472 88.0929 359.603 92.7673 366.887 92.7673C371.561 92.7673 374.605 90.7018 376.127 87.2232H393.411C392.216 92.2237 388.954 97.0069 384.063 100.377C379.388 103.638 373.735 105.486 366.669 105.486ZM354.494 70.0474H376.453C375.801 63.4162 371.67 59.1766 365.908 59.1766C359.169 59.1766 355.69 63.4162 354.494 70.0474ZM400.322 103.855V48.1971H418.041V103.855H400.322ZM400.322 40.4789V26.1295H418.041V40.4789H400.322ZM452.416 123.097C437.088 123.097 426.978 116.792 425.239 105.16H442.415C443.393 108.095 446.328 110.595 452.199 110.595C459.699 110.595 462.852 106.682 462.852 99.942V94.3979H462.417C459.156 98.094 454.916 100.812 448.176 100.812C435.675 100.812 424.043 91.4628 424.043 74.3957C424.043 58.0895 433.61 46.5665 447.415 46.5665C454.808 46.5665 459.808 49.5016 463.069 54.1761H463.287V48.1971H480.245V98.4201C480.245 106.791 477.31 112.878 472.853 116.9C467.961 121.249 460.678 123.097 452.416 123.097ZM452.307 87.658C460.025 87.658 463.613 81.5704 463.613 73.7434C463.613 66.2426 459.699 59.9376 452.307 59.9376C445.676 59.9376 441.328 65.3729 441.328 73.8521C441.328 82.2226 445.676 87.658 452.307 87.658ZM488.753 103.855V26.1295H506.473V55.0457H506.799C510.821 49.719 515.604 46.5665 523.322 46.5665C535.497 46.5665 542.672 55.2631 542.672 67.6558V103.855H524.953V71.2432C524.953 65.3729 522.018 61.3508 516.256 61.3508C510.386 61.3508 506.473 66.2426 506.473 73.0912V103.855H488.753ZM571.757 104.508C561.429 104.508 554.037 101.138 554.037 89.1799V59.2853H546.645V48.1971H554.037V30.5865H571.322V48.1971H581.432V59.2853H571.322V85.3752C571.322 89.7235 573.713 90.8105 577.518 90.8105C579.04 90.8105 580.779 90.7018 581.432 90.7018V103.638C579.91 104.073 576.54 104.508 571.757 104.508ZM588.101 103.855V85.5926H606.69V103.855H588.101Z" fill="white"/>
<path d="M637.31 78.4765V74.8891L619.373 49.5602H629.374L641.006 66.0838C643.615 69.7798 644.376 71.8453 644.376 73.6933H647.855C647.855 71.8453 648.616 69.7798 651.225 66.0838L662.856 49.5602H672.857L654.921 75.1065V78.3678L672.857 103.914H662.856L651.225 87.3905C648.616 83.6944 647.855 81.5203 647.855 79.6722H644.376C644.376 81.5203 643.615 83.6944 641.006 87.3905L629.374 103.914H619.373L637.31 78.4765ZM694.556 49.5602L707.384 90.7604C709.232 97.0655 709.341 97.3916 709.341 100.653H713.254C713.254 97.3916 713.363 97.0655 715.211 90.7604L727.386 49.5602H737.17L712.058 131.091L702.275 131.2L711.406 103.914H702.275L684.773 49.5602H694.556ZM802.569 104.24H751.477V87.3905L789.524 63.04C790.829 62.1703 792.894 61.0832 797.025 61.0832V57.822H752.564V49.5602H800.287V65.8664L763.108 90.6517C761.26 91.8475 758.651 92.7172 754.738 92.7172V95.9784H802.569V104.24Z" fill="white"/>
</svg>
